<?xml version="1.0" encoding="utf-8"?>
<!-- Generator: Adobe Illustrator 25.4.1, SVG Export Plug-In . SVG Version: 6.00 Build 0)  -->
<svg version="1.1" id="Layer_1" xmlns="http://www.w3.org/2000/svg" xmlns:xlink="http://www.w3.org/1999/xlink" x="0px" y="0px"
	 viewBox="0 0 355.7 276.1" style="enable-background:new 0 0 355.7 276.1;" xml:space="preserve">
<style type="text/css">
	.st0{fill:#E9D8AC;}
</style>
<g>
	<path class="st0" d="M99,213.3V62.9c0-3.8,3.1-6.9,7-6.9h11.6c3.9,0,7-3.1,7-6.9V20c0-3.8-3.1-6.9-7-6.9H44.8c-3.9,0-7,3.1-7,6.9
		v236.1c0,3.8,3.1,6.9,7,6.9h72.8c3.9,0,7-3.1,7-6.9v-29c0-3.8-3.1-6.9-7-6.9H106C102.1,220.2,99,217.1,99,213.3z"/>
	<path class="st0" d="M314.9,131c3.8,3,3.9,10.4,0,13.4l-71.8,55.9l-71.8,55.9c-3.8,3-8.6-0.7-8.7-6.7L162.4,138l-0.3-111.5
		c0-5.9,4.8-9.7,8.6-6.7l72.1,55.6L314.9,131z"/>
</g>
</svg>
