<?xml version="1.0" encoding="utf-8"?>
<!-- Generator: Adobe Illustrator 25.4.1, SVG Export Plug-In . SVG Version: 6.00 Build 0)  -->
<svg version="1.1" id="Layer_1" xmlns="http://www.w3.org/2000/svg" xmlns:xlink="http://www.w3.org/1999/xlink" x="0px" y="0px"
	 viewBox="0 0 1125 342.9" style="enable-background:new 0 0 1125 342.9;" xml:space="preserve">
<style type="text/css">
	.st0{fill:#E9D8AC;}
</style>
<g>
	<g>
		<g>
			<path class="st0" d="M326.3,89.3c-4.6-16-15.9-27.4-33.8-34.3c-11.1-4.3-26.9-7.2-47.5-8.8c-4.1-0.3-7.6,2.9-7.6,6.9V83
				c0,3.4,2.5,6.3,6,6.9c2.9,0.4,5.3,1,7.3,1.5c8.8,2.5,14.4,8.9,17,19.1s3.9,29.9,3.9,59.2c0,29.6-1.2,49.4-3.7,59.4
				c-2.4,10.1-8.1,16.4-17,18.9c-2,0.6-4.6,1.1-7.5,1.6c-3.4,0.5-6,3.4-6,6.9v29.8c0,4.1,3.5,7.2,7.6,6.9
				c20.6-1.6,36.4-4.6,47.5-8.8c18-6.9,29.2-18.4,33.8-34.3c4.6-16,6.9-42.8,6.9-80.3C333.2,132,330.8,105.3,326.3,89.3z"/>
			<g>
				<path class="st0" d="M161.6,244.8V94.4c0-3.8,3.1-6.9,7-6.9h11.6c3.9,0,7-3.1,7-6.9V51.5c0-3.8-3.1-6.9-7-6.9h-72.8
					c-3.9,0-7,3.1-7,6.9v236.1c0,3.8,3.1,6.9,7,6.9h72.8c3.9,0,7-3.1,7-6.9v-29c0-3.8-3.1-6.9-7-6.9h-11.6
					C164.7,251.7,161.6,248.6,161.6,244.8z"/>
			</g>
		</g>
	</g>
	<g>
		<path class="st0" d="M386.9,67.2h27.3c4.5,0,8.1,3.6,8.1,8.1v194.5c0,4.5-3.6,8.1-8.1,8.1h-27.3c-4.5,0-8.1-3.6-8.1-8.1V75.3
			C378.8,70.9,382.4,67.2,386.9,67.2z"/>
		<path class="st0" d="M480.9,67.2h128.4c4.5,0,8.1,3.6,8.1,8.1v19.9c0,4.5-3.6,8.1-8.1,8.1h-84.9c-4.5,0-8.1,3.6-8.1,8.1v34
			c0,4.5,3.6,8.1,8.1,8.1h70.5c4.5,0,8.1,3.6,8.1,8.1v19.9c0,4.5-3.6,8.1-8.1,8.1h-70.5c-4.5,0-8.1,3.6-8.1,8.1v35.9
			c0,4.5,3.6,8.1,8.1,8.1h84.9c4.5,0,8.1,3.6,8.1,8.1v19.9c0,4.5-3.6,8.1-8.1,8.1H480.9c-4.5,0-8.1-3.6-8.1-8.1V75.3
			C472.8,70.9,476.5,67.2,480.9,67.2z"/>
		<path class="st0" d="M687.2,271.7c-12.9-5.8-21.7-16.2-26.5-31.1c-4.8-14.9-7.2-37.6-7.2-68c0-29.4,2.5-51.6,7.4-66.6
			s13.9-25.6,27-31.9c13.1-6.2,32.6-9.3,58.5-9.3c11.8,0,24.5,0.7,37.8,2.1c9.8,1.1,18.1,2.2,24.9,3.3c3.9,0.7,6.8,4,6.8,8v18.1
			c0,4.8-4.2,8.6-9,8c-5.6-0.6-11.7-1.3-18.4-1.9c-10.5-1-18.9-1.5-25.3-1.5c-21.6,0-36.6,1.2-44.7,3.5c-8.2,2.3-13.7,8.2-16.7,17.6
			s-4.4,26.2-4.4,50.5c0,22.1,1.1,37.9,3.4,47.6c2.2,9.7,6.8,16.3,13.6,19.8s18,5.2,33.5,5.2c7.9,0,14.5-0.2,19.7-0.5
			c4.2-0.3,7.5-3.8,7.5-8.1v-35.7c0-4.5-3.6-8.1-8.1-8.1h-18.4c-4.5,0-8.1-3.6-8.1-8.1v-18.7c0-4.5,3.6-8.1,8.1-8.1h60.1
			c4.5,0,8.1,3.6,8.1,8.1v100.6c0,3.9-2.8,7.3-6.7,8c-8.7,1.5-18.3,2.8-28.7,3.8c-13.2,1.3-24.9,2-35.1,2
			C719.8,280.4,700.1,277.5,687.2,271.7z"/>
		<path class="st0" d="M886.6,271.4c-12.3-6-20-16-23.1-29.9c-3.2-13.9-4.7-36.9-4.7-68.9c0-32.1,1.6-55,4.7-68.9
			c3.2-13.9,10.9-23.8,23.1-29.9c12.3-6,32.8-9,61.6-9s49.4,3,61.7,9c12.4,6,20.1,16,23.3,29.9c3.2,13.9,4.8,36.9,4.8,68.9
			c0,32.1-1.6,55-4.8,68.9c-3.2,13.9-10.9,23.8-23.3,29.9c-12.4,6-32.9,9-61.7,9S898.9,277.4,886.6,271.4z M980.8,240.8
			c5.6-2.3,9.2-7.9,10.7-16.7s2.3-25.9,2.3-51.5c0-25.5-0.8-42.7-2.3-51.5s-5.1-14.3-10.7-16.7c-5.6-2.3-16.5-3.5-32.6-3.5
			s-27,1.2-32.5,3.5s-9.1,8-10.7,16.8c-1.6,8.9-2.4,26-2.4,51.3s0.8,42.4,2.4,51.3c1.6,8.9,5.2,14.5,10.7,16.8s16.3,3.5,32.5,3.5
			C964.3,244.3,975.2,243.1,980.8,240.8z"/>
	</g>
</g>
</svg>
