<?xml version="1.0" encoding="utf-8"?>
<!-- Generator: Adobe Illustrator 25.4.1, SVG Export Plug-In . SVG Version: 6.00 Build 0)  -->
<svg version="1.1" id="Layer_1" xmlns="http://www.w3.org/2000/svg" xmlns:xlink="http://www.w3.org/1999/xlink" x="0px" y="0px"
	 viewBox="0 0 415.3 196.2" style="enable-background:new 0 0 415.3 196.2;" xml:space="preserve">
<style type="text/css">
	.st0{fill:#E9D8AC;}
	.st1{fill:none;}
	.st2{font-family:'Saira-SemiBold';}
	.st3{font-size:66px;}
</style>
<g>
	<g>
		<g>
			<path class="st0" d="M104.4,102.2c-2-6.8-6.8-11.6-14.4-14.6c-4.7-1.8-11.4-3.1-20.2-3.7c-1.7-0.1-3.2,1.2-3.2,2.9v12.7
				c0,1.4,1.1,2.7,2.6,2.9c1.2,0.2,2.3,0.4,3.1,0.6c3.7,1.1,6.1,3.8,7.2,8.1c1.1,4.3,1.7,12.7,1.7,25.2c0,12.6-0.5,21-1.6,25.2
				c-1,4.3-3.4,7-7.2,8c-0.9,0.3-2,0.5-3.2,0.7c-1.4,0.2-2.6,1.4-2.6,2.9v12.7c0,1.7,1.5,3.1,3.2,2.9c8.8-0.7,15.5-2,20.2-3.7
				c7.7-2.9,12.4-7.8,14.4-14.6s2.9-18.2,2.9-34.1S106.3,109,104.4,102.2z"/>
			<g>
				<path class="st0" d="M34.4,168.3v-63.9c0-1.6,1.3-2.9,3-2.9h4.9c1.7,0,3-1.3,3-2.9V86.1c0-1.6-1.3-2.9-3-2.9h-31
					c-1.7,0-3,1.3-3,2.9v100.4c0,1.6,1.3,2.9,3,2.9h30.9c1.7,0,3-1.3,3-2.9v-12.3c0-1.6-1.3-2.9-3-2.9h-4.9
					C35.7,171.2,34.4,169.9,34.4,168.3z"/>
			</g>
		</g>
	</g>
	<g>
		<path class="st0" d="M130.1,92.8h11.6c1.9,0,3.4,1.5,3.4,3.4v82.7c0,1.9-1.5,3.4-3.4,3.4h-11.6c-1.9,0-3.4-1.5-3.4-3.4V96.3
			C126.7,94.4,128.2,92.8,130.1,92.8z"/>
		<path class="st0" d="M170.1,92.8h54.6c1.9,0,3.4,1.5,3.4,3.4v8.5c0,1.9-1.5,3.4-3.4,3.4h-36.1c-1.9,0-3.4,1.5-3.4,3.4V126
			c0,1.9,1.5,3.4,3.4,3.4h30c1.9,0,3.4,1.5,3.4,3.4v8.6c0,1.9-1.5,3.4-3.4,3.4h-30c-1.9,0-3.4,1.5-3.4,3.4v15.3
			c0,1.9,1.5,3.4,3.4,3.4h36.1c1.9,0,3.4,1.5,3.4,3.4v8.5c0,1.9-1.5,3.4-3.4,3.4h-54.6c-1.9,0-3.4-1.5-3.4-3.4V96.3
			C166.7,94.4,168.2,92.8,170.1,92.8z"/>
		<path class="st0" d="M257.8,179.7c-5.5-2.5-9.2-6.9-11.3-13.2c-2-6.3-3.1-16-3.1-28.9c0-12.5,1.1-21.9,3.1-28.3
			c2-6.4,5.9-10.9,11.5-13.6c5.6-2.6,13.9-4,24.9-4c5,0,10.4,0.3,16.1,0.9c4.2,0.5,7.7,0.9,10.6,1.4c1.7,0.3,2.9,1.7,2.9,3.4v7.7
			c0,2-1.8,3.7-3.8,3.4c-2.4-0.3-5-0.6-7.8-0.8c-4.5-0.4-8-0.6-10.8-0.6c-9.2,0-15.6,0.5-19,1.5c-3.5,1-5.8,3.5-7.1,7.5
			s-1.9,11.1-1.9,21.5c0,9.4,0.5,16.1,1.4,20.2s2.9,6.9,5.8,8.4s7.7,2.2,14.2,2.2c3.4,0,6.2-0.1,8.4-0.2c1.8-0.1,3.2-1.6,3.2-3.4
			v-15.2c0-1.9-1.5-3.4-3.4-3.4h-7.8c-1.9,0-3.4-1.5-3.4-3.4v-7.9c0-1.9,1.5-3.4,3.4-3.4h25.5c1.9,0,3.4,1.5,3.4,3.4v42.8
			c0,1.7-1.2,3.1-2.8,3.4c-3.7,0.6-7.8,1.2-12.2,1.6c-5.6,0.6-10.6,0.9-14.9,0.9C271.6,183.4,263.3,182.2,257.8,179.7z"/>
		<path class="st0" d="M342.5,179.6c-5.2-2.6-8.5-6.8-9.8-12.7c-1.4-5.9-2-15.7-2-29.3c0-13.6,0.7-23.4,2-29.3
			c1.4-5.9,4.6-10.1,9.8-12.7c5.2-2.6,13.9-3.8,26.2-3.8c12.2,0,21,1.3,26.2,3.8c5.3,2.6,8.5,6.8,9.9,12.7s2,15.7,2,29.3
			c0,13.6-0.7,23.4-2,29.3c-1.4,5.9-4.6,10.1-9.9,12.7c-5.3,2.6-14,3.8-26.2,3.8S347.8,182.2,342.5,179.6z M382.6,166.6
			c2.4-1,3.9-3.4,4.5-7.1s1-11,1-21.9c0-10.8-0.3-18.1-1-21.9c-0.6-3.7-2.2-6.1-4.5-7.1c-2.4-1-7-1.5-13.9-1.5
			c-6.8,0-11.5,0.5-13.8,1.5s-3.9,3.4-4.5,7.1c-0.7,3.8-1,11.1-1,21.8s0.3,18,1,21.8s2.2,6.2,4.5,7.1c2.3,1,6.9,1.5,13.8,1.5
			C375.6,168.1,380.2,167.6,382.6,166.6z"/>
	</g>
</g>
<rect x="105.4" y="-9" class="st1" width="204.4" height="88.8"/>
<text transform="matrix(1 0 0 1 147.3597 59.9796)" class="st0 st2 st3">Join</text>
<rect x="134.2" y="16.6" class="st1" width="7.9" height="0"/>
</svg>
