<?xml version="1.0" encoding="utf-8"?>
<!-- Generator: Adobe Illustrator 25.4.1, SVG Export Plug-In . SVG Version: 6.00 Build 0)  -->
<svg version="1.1" id="Layer_1" xmlns="http://www.w3.org/2000/svg" xmlns:xlink="http://www.w3.org/1999/xlink" x="0px" y="0px"
	 viewBox="0 0 40.4 40.4" style="enable-background:new 0 0 40.4 40.4;" xml:space="preserve">
<style type="text/css">
	.st0{clip-path:url(#SVGID_00000064352231280152801260000005432379361174404261_);}
	.st1{fill:#E9D8AC;}
</style>
<g>
	<defs>
		<rect id="SVGID_1_" x="0.3" y="0.3" width="40" height="40"/>
	</defs>
	<clipPath id="SVGID_00000100370107238838570170000011792033000755153304_">
		<use xlink:href="#SVGID_1_"  style="overflow:visible;"/>
	</clipPath>
	<g style="clip-path:url(#SVGID_00000100370107238838570170000011792033000755153304_);">
		<path class="st1" d="M34.4,6.2c-3.8-3.8-8.8-5.9-14.1-5.9S9.9,2.4,6.1,6.2S0.3,15,0.3,20.3s2.1,10.4,5.9,14.1
			c3.8,3.8,8.8,5.9,14.1,5.9s10.4-2.1,14.1-5.9c3.8-3.8,5.9-8.8,5.9-14.1S38.2,9.9,34.4,6.2z M20.3,38.1c-9.8,0-17.8-8-17.8-17.8
			s8-17.8,17.8-17.8s17.8,8,17.8,17.8S30.1,38.1,20.3,38.1z"/>
		<path class="st1" d="M20.3,16.9c2.9,0,5.2-2.3,5.2-5.2c0-2.9-2.3-5.2-5.2-5.2s-5.2,2.3-5.2,5.2C15.1,14.6,17.4,16.9,20.3,16.9z
			 M20.3,8.7c1.7,0,3,1.3,3,3c0,1.7-1.3,3-3,3s-3-1.3-3-3C17.3,10.1,18.6,8.7,20.3,8.7z"/>
		<path class="st1" d="M28.2,23.3c-1.8-2.7-4.5-4-7.9-4s-6.1,1.4-7.9,4c-1.4,2-2.2,4.7-2.6,8.1c-0.1,0.6,0.4,1.2,1,1.2
			c0.6,0.1,1.2-0.4,1.2-1c0.7-6.7,3.5-10.1,8.3-10.1s7.6,3.4,8.3,10.1c0.1,0.6,0.5,1,1.1,1c0,0,0.1,0,0.1,0c0.6-0.1,1-0.6,1-1.2
			C30.4,28,29.5,25.2,28.2,23.3z"/>
	</g>
</g>
</svg>
